<?xml version="1.0" encoding="UTF-8"?>
<svg xmlns="http://www.w3.org/2000/svg" viewBox="0 0 512 512">
  <defs>
    <linearGradient id="g" x1="0" y1="0" x2="1" y2="1">
      <stop offset="0%" stop-color="#2563eb"/>
      <stop offset="100%" stop-color="#1d4ed8"/>
    </linearGradient>
  </defs>
  <rect width="512" height="512" rx="96" fill="url(#g)"/>
  <g fill="none" stroke="#ffffff" stroke-width="28" stroke-linecap="round" stroke-linejoin="round" transform="translate(112 124)">
    <path d="M288 96V272a26 26 0 0 1 -26 26H26A26 26 0 0 1 0 272V96A26 26 0 0 1 16 71L120 28a26 26 0 0 1 48 0L272 71A26 26 0 0 1 288 96Z"/>
    <path d="M64 240V120"/>
    <path d="M120 160v80"/>
    <path d="M168 160v80"/>
    <path d="M224 120v120"/>
  </g>
</svg>
